<svg width="135" height="118" viewBox="0 0 135 118" fill="none" xmlns="http://www.w3.org/2000/svg">
<rect width="118" height="118" fill="#840099"/>
<path d="M19.0723 65.9844C19.9512 66.4141 20.3906 67.2148 20.3906 68.3867V74.627C20.3906 75.8184 20.7715 76.7949 21.5332 77.5566L20.9473 78.1426C20.1855 77.3809 19.209 77 18.0176 77H7.85156C6.66016 77 5.68359 77.3809 4.92188 78.1426L4.33594 77.5566C5.09766 76.7949 5.47852 75.8184 5.47852 74.627V40.3496C5.47852 39.1582 5.09766 38.1816 4.33594 37.4199L4.92188 36.8047C5.70312 37.5859 6.67969 37.9766 7.85156 37.9766H18.0176C19.1895 37.9766 20.166 37.5859 20.9473 36.8047L21.5332 37.4199C20.7715 38.1816 20.3906 39.1582 20.3906 40.3496V49.4609C20.3906 50.6328 20.1562 51.7559 19.6875 52.8301L20.127 53.0059C20.5762 51.9512 21.2305 51.0137 22.0898 50.1934L33.1348 39.6172C33.584 39.1875 33.8574 38.7969 33.9551 38.4453C34.0723 38.0938 34.043 37.625 33.8672 37.0391L34.8926 36.6582C35.2637 37.5371 36.0352 37.9766 37.207 37.9766H51.9141C53.0078 37.9766 54.1406 37.7617 55.3125 37.332L55.459 37.7422C54.3652 38.1523 53.3789 38.748 52.5 39.5293L40.6055 49.8711C39.7461 50.6523 38.7793 50.9746 37.7051 50.8379L37.5879 51.7461C38.6426 51.8438 39.502 52.3906 40.166 53.3867L55.3418 75.0371C56.0059 76.0137 56.8457 76.7754 57.8613 77.3223L57.5977 77.791C56.6016 77.2637 55.5078 77 54.3164 77H40.166C38.9941 77 38.1738 77.4395 37.7051 78.3184L36.7676 77.8203C37.041 77.2539 37.1484 76.7852 37.0898 76.4141C37.0312 76.0234 36.8262 75.5547 36.4746 75.0078L28.0957 62.6445C27.4512 61.6484 27.1973 60.6133 27.334 59.5391L26.543 59.4512C26.4062 60.5059 25.8691 61.4141 24.9316 62.1758L22.2363 64.4902C21.7285 64.9004 21.2891 65.1445 20.918 65.2227C20.5664 65.3008 20.1074 65.2324 19.541 65.0176L19.0723 65.9844ZM94.7754 48.4648L95.2441 41.7852C95.2441 39.793 94.7852 38.3379 93.8672 37.4199L94.4531 36.8047C95.2539 37.5859 96.2305 37.9766 97.3828 37.9766H107.725C108.896 37.9766 109.873 37.5859 110.654 36.8047L111.24 37.4199C110.479 38.1816 110.098 39.1582 110.098 40.3496V74.627C110.098 75.7988 110.479 76.7754 111.24 77.5566L110.654 78.1426C109.893 77.3809 108.916 77 107.725 77H97.3828C96.1914 77 95.2148 77.3809 94.4531 78.1426L93.8672 77.5566C94.6094 76.8145 94.9805 75.8379 94.9805 74.627L94.9219 64.7832C94.9219 63.6113 95.293 62.6445 96.0352 61.8828L95.4492 61.2969C94.707 62.0391 93.7305 62.4102 92.5195 62.4102H80.5078C79.3164 62.4102 78.3398 62.0391 77.5781 61.2969L76.9922 61.8828C77.0312 62.332 77.0508 64.6953 77.0508 68.9727V82.1855C77.0508 83.9629 77.2754 86.4824 77.7246 89.7441C78.1738 93.0059 78.3984 95.3105 78.3984 96.6582C78.3984 98.0059 78.2324 98.9238 77.9004 99.4121C77.5879 99.9004 77.207 100.145 76.7578 100.145C76.3086 100.145 75.918 99.9004 75.5859 99.4121C75.2734 98.9434 75.1172 98.4551 75.1172 97.9473C75.1172 97.459 75.2148 96.3164 75.4102 94.5195C75.9961 89.0898 76.2891 85.0078 76.2891 82.2734C76.2891 80.9258 75.8789 79.7539 75.0586 78.7578C73.457 76.8242 71.2598 75.8574 68.4668 75.8574C67.041 75.8574 65.8398 76.1895 64.8633 76.8535C63.9062 77.5176 63.4277 78.4355 63.4277 79.6074C63.4277 80.7988 63.6133 82.5371 63.9844 84.8223C64.375 87.1074 64.5703 88.6895 64.5703 89.5684C64.5703 91.3848 64.0039 92.293 62.8711 92.293C62.3438 92.293 61.8945 92.0879 61.5234 91.6777C61.1523 91.2871 60.9668 90.6328 60.9668 89.7148C60.9668 88.8164 61.2793 87.1953 61.9043 84.8516C62.5488 82.5078 62.8711 80.6816 62.8711 79.373V40.3496C62.8711 39.1191 62.5 38.1426 61.7578 37.4199L62.3145 36.8047C63.1152 37.5859 64.0918 37.9766 65.2441 37.9766H75.7617C76.9141 37.9766 77.8809 37.5859 78.6621 36.8047L79.2773 37.4199C78.3789 38.3184 77.9297 39.7832 77.9297 41.8145L78.3691 48.5527C78.3691 50.5645 77.9102 52.0293 76.9922 52.9473L77.5781 53.5625C78.3398 52.8008 79.3164 52.4199 80.5078 52.4199H92.6367C93.8281 52.4199 94.7949 52.8008 95.5371 53.5625L96.1523 52.9473C95.2344 52.0098 94.7754 50.5156 94.7754 48.4648Z" fill="#FDFF8B"/>
</svg>
